PathFileType	4	(X/Y/Z)	s03c0101.trc
DataRate	CameraRate	NumFrames	NumMarkers	Units	OrigDataRate	OrigDataStartFrame	OrigNumFrames
200	200	4	52	mm	200	1250	2000
Frame#	Time	racr			lacr			c7			jug			rlel			rdr			llel			ldr			s2			lic			ric			lasi			rasi			rpsi			lpsi			rgt			lgt			rth1			rth2			rth3			rth4			rlfc			rmfc			rsh1			rsh2			rsh3			rsh4			rlmal			rmmal			rcal			rtoe			rmt5			rmt1			lth1			lth2			lth4			lth3			llfc			lmfc			lsh1			lsh2			lsh3			lsh4			llmal			lmmal			lcal			ltoe			lmt1			lmt5			SBIKE			LBIKE			RBIKE			
		X1	Y1	Z1	X2	Y2	Z2	X3	Y3	Z3	X4	Y4	Z4	X5	Y5	Z5	X6	Y6	Z6	X7	Y7	Z7	X8	Y8	Z8	X9	Y9	Z9	X10	Y10	Z10	X11	Y11	Z11	X12	Y12	Z12	X13	Y13	Z13	X14	Y14	Z14	X15	Y15	Z15	X16	Y16	Z16	X17	Y17	Z17	X18	Y18	Z18	X19	Y19	Z19	X20	Y20	Z20	X21	Y21	Z21	X22	Y22	Z22	X23	Y23	Z23	X24	Y24	Z24	X25	Y25	Z25	X26	Y26	Z26	X27	Y27	Z27	X28	Y28	Z28	X29	Y29	Z29	X30	Y30	Z30	X31	Y31	Z31	X32	Y32	Z32	X33	Y33	Z33	X34	Y34	Z34	X35	Y35	Z35	X36	Y36	Z36	X37	Y37	Z37	X38	Y38	Z38	X39	Y39	Z39	X40	Y40	Z40	X41	Y41	Z41	X42	Y42	Z42	X43	Y43	Z43	X44	Y44	Z44	X45	Y45	Z45	X46	Y46	Z46	X47	Y47	Z47	X48	Y48	Z48	X49	Y49	Z49	X50	Y50	Z50	X51	Y51	Z51	X52	Y52	Z52	
1250	6.2500	493.283485	1396.965018	-151.931013	409.366073	1405.591532	-451.474121	390.237694	1492.712596	-289.389951	399.384677	1318.996485	-294.643972	549.196201	1153.932657	-14.224382	742.432298	937.882871	-57.742104	501.747116	1153.122534	-498.457651	732.739376	947.385803	-433.457915	-110.115370	1201.458893	-173.681716	14.635159	1257.262500	-384.198068	87.377191	1236.151004	-23.754296	55.365208	1189.185741	-347.756800	108.517947	1170.217768	-72.778328	-74.165029	1250.519811	-129.807132	-89.643947	1258.473628	-208.578283	22.861966	1107.460661	-9.545685	-10.596261	1181.217432	-396.967070	101.899776	966.987367	2.887277	171.591872	911.493857	4.584397	205.518492	832.962533	-5.147849	200.294568	933.253692	-4.848864	264.016007	719.419779	-38.406787	269.371660	705.816771	-156.824116	211.361714	561.117362	-14.140491	210.097634	472.624967	-28.858916	164.407557	397.115601	-32.810800	239.732659	467.298527	-53.283090	119.235436	272.252854	-58.944619	149.743280	282.702329	-136.626995	54.244140	248.621935	-96.153703	347.130794	146.629631	-112.866851	229.864615	161.290286	-37.461833	258.145627	178.423725	-150.197895	113.487734	1119.449082	-447.656795	198.246251	1113.831962	-463.769269	212.420259	1145.044848	-449.112353	270.568479	1063.859173	-480.780638	404.515930	1020.448159	-486.193335	429.160899	1007.702694	-354.273223	318.785944	869.969005	-482.010473	300.868671	790.305138	-454.289427	239.895884	725.675077	-438.027396	331.877379	778.806740	-435.591304	175.543673	623.734468	-405.717842	217.500149	634.159176	-321.569363	105.130074	599.108598	-351.934558	395.558350	494.824653	-359.597658	305.805366	520.503844	-314.840649	273.356370	510.410974	-428.420686	-213.893462	945.444397	-229.724909	-8.884160	81.498018	-433.126539	-9.159601	80.692200	-32.727531	
1251	6.2550	494.027438	1396.077016	-154.390691	407.682449	1405.664376	-453.205718	390.080183	1492.545347	-291.069601	398.597725	1318.812236	-296.706394	548.789646	1153.489337	-14.827834	742.263079	937.689538	-57.639852	500.484357	1153.512907	-498.886404	732.004827	948.289948	-433.741600	-109.984361	1202.356939	-173.208107	13.864418	1258.896703	-383.270403	87.812847	1236.800543	-23.276819	54.897100	1189.688211	-347.440372	108.314916	1170.401904	-72.129472	-74.055951	1251.527934	-129.370537	-89.553996	1259.688559	-208.105896	22.887564	1108.244584	-9.366459	-10.759401	1182.066592	-397.340170	102.838102	968.197805	3.091372	172.957025	913.232245	4.927857	207.595757	834.986895	-4.414679	201.453419	935.235537	-4.523673	266.506933	721.239793	-37.312003	271.898484	707.786110	-155.905741	210.812244	563.969585	-13.311216	207.617917	475.518811	-28.289390	160.338865	401.052110	-32.241002	237.156324	469.578073	-52.714892	112.553571	277.277785	-58.936599	143.284433	287.122441	-136.239462	47.051189	255.150866	-96.274934	337.184357	145.747204	-112.755158	220.372356	163.532758	-37.561237	249.195801	179.724202	-150.201996	113.297265	1119.340526	-446.592286	198.112071	1113.752951	-462.506891	211.927945	1144.896535	-447.187334	270.375104	1063.510579	-478.324257	404.978261	1020.782394	-483.642704	429.207521	1008.271504	-351.580436	321.528677	868.573208	-479.664171	304.662451	788.713384	-453.321385	244.565662	723.173370	-437.558297	335.801799	777.533287	-434.589947	181.733350	619.152674	-405.990119	225.955263	631.431472	-319.296779	111.813081	592.466938	-352.238500	405.280661	496.361448	-359.726353	314.592676	519.835690	-315.169986	282.717778	508.371715	-428.525322	-214.081382	945.482737	-229.411102	-8.916473	81.527471	-433.107602	-9.186890	80.715006	-32.711884	
1252	6.2600	494.518632	1395.208250	-156.659695	406.019201	1405.758667	-454.810777	389.844645	1492.354163	-292.520245	397.746860	1318.608763	-298.562845	548.158358	1152.969583	-15.351280	742.092687	937.522363	-57.417728	498.996862	1153.661508	-499.407335	731.232594	949.168135	-434.282699	-109.987364	1203.322688	-172.855764	13.187026	1260.640265	-382.904224	88.098171	1237.420698	-22.909901	54.466816	1190.007460	-347.205307	108.044533	1170.788628	-71.816281	-73.947550	1252.280290	-129.085919	-89.481489	1260.626723	-207.654474	22.969707	1108.947472	-9.266732	-10.916799	1182.427111	-397.613716	103.837534	969.530411	3.094775	174.315749	915.216802	5.141482	209.768348	837.178554	-3.854191	202.725035	937.471401	-4.388810	269.252393	723.428393	-36.209614	274.915095	710.006689	-154.886049	210.733932	567.099238	-12.610099	205.470191	478.903332	-27.886325	156.619397	405.388775	-32.126569	234.861035	472.367033	-52.276210	106.346381	282.947021	-59.016755	137.229695	292.013453	-136.055742	40.219142	262.506313	-96.450719	327.339101	145.328659	-112.633435	210.993158	166.499670	-37.677407	240.467205	181.619952	-150.198118	113.122383	1119.057957	-446.062696	198.254518	1113.123222	-461.005515	211.807028	1144.345610	-446.071624	270.245926	1062.750183	-476.780637	405.215474	1020.240615	-481.919558	428.847916	1007.651571	-349.310054	323.935780	866.600451	-478.172497	308.216380	786.305263	-452.627583	248.997521	719.833736	-437.126920	339.532717	775.359470	-433.905673	188.011033	613.618624	-406.203018	231.645901	626.976911	-319.465553	118.416882	584.815031	-352.459285	414.398995	497.482549	-360.194342	323.267860	518.260804	-315.523087	291.788207	505.770012	-428.758157	-213.996797	945.484116	-229.644692	-8.949632	81.567346	-433.086567	-9.200427	80.721190	-32.690751	
1253	6.2650	494.974240	1394.427562	-158.607407	404.547187	1405.943147	-456.303488	389.630306	1492.214478	-293.808385	397.020281	1318.463216	-300.229707	547.510209	1152.454647	-15.669737	741.945075	937.328777	-57.102772	497.206113	1153.660940	-500.108971	730.191909	949.924919	-434.544666	-110.589617	1204.599376	-172.516342	12.484441	1262.239155	-382.622754	88.315540	1237.791546	-22.284914	54.077929	1190.151859	-347.058601	107.681668	1171.050087	-71.571618	-74.071811	1253.143345	-128.869607	-89.399182	1261.237949	-207.339316	23.088584	1109.694845	-9.176665	-11.232129	1182.422005	-397.561495	104.975312	970.959790	2.995680	175.940793	917.395285	5.209568	212.197869	839.666431	-3.390425	204.039574	939.824823	-4.352035	272.229479	725.940581	-35.134686	278.206989	712.469342	-153.931166	210.776710	570.602408	-12.001927	203.679240	482.526537	-27.474357	153.238555	410.109891	-31.852889	232.904371	475.458273	-51.837241	100.318217	289.177297	-58.993395	131.567452	297.436601	-135.987008	33.792429	270.423644	-96.725787	317.607873	145.317613	-112.483110	201.975123	169.956627	-37.825212	231.823004	183.995757	-150.371272	113.025603	1118.421803	-445.887800	198.231878	1111.978324	-460.133687	212.112599	1143.492652	-446.391234	270.200789	1061.616119	-476.422894	405.410637	1018.290124	-479.763231	428.371563	1006.017782	-347.237289	326.083421	863.653865	-476.797708	311.441374	782.819039	-452.054230	253.147014	715.538275	-436.985746	343.000886	772.214917	-433.234141	194.123769	607.220806	-406.489704	237.277956	621.566683	-319.442306	124.949155	576.192607	-352.860610	423.656862	498.255462	-359.890673	331.696086	516.234282	-315.757859	300.728003	502.435524	-429.035698	-214.034968	945.505327	-229.549976	-8.960881	81.611815	-433.063284	-9.219153	80.723718	-32.671819	
